Coordinates
version=1
nRows=14
nColumns=24
inDegrees=yes

Units are S.I. units (second, meters, Newtons, ...)
If the header above contains a line with 'inDegrees', this indicates whether rotational values are in degrees (yes) or radians (no).

endheader
time	pelvis_tilt	pelvis_list	pelvis_rotation	pelvis_tx	pelvis_ty	pelvis_tz	hip_flexion_r	hip_adduction_r	hip_rotation_r	knee_angle_r	ankle_angle_r	subtalar_angle_r	mtp_angle_r	hip_flexion_l	hip_adduction_l	hip_rotation_l	knee_angle_l	ankle_angle_l	subtalar_angle_l	mtp_angle_l	lumbar_extension	lumbar_bending	lumbar_rotation
      1.66000000	     -6.67968216	     -2.43438879	    -13.90071558	      0.72536682	      0.70622850	     -0.07978923	    -11.28054684	      2.31259639	     -0.13186621	    -23.67028477	     14.79126136	      1.35864969	      0.00000000	     38.56357296	     -6.84224424	    -10.44265712	    -26.16201848	      9.56966941	    -11.68914143	      0.00000000	     -1.28240673	      4.32856602	      9.15506685
      1.67000000	     -6.30527223	     -1.89399334	    -13.95253876	      0.74263346	      0.70578866	     -0.08056953	    -10.87205712	      1.46115719	      0.85906690	    -27.15280102	     12.20587499	     -0.69574225	      0.00000000	     38.45174226	     -5.93729230	     -9.75258802	    -28.90714895	      8.94909673	    -13.28103308	      0.00000000	     -1.18068263	      3.59956716	      9.27604454
      1.68000000	     -5.87306044	     -1.27476486	    -13.98308901	      0.75986068	      0.70562589	     -0.08141904	    -10.14252940	      0.54273454	      1.69614940	    -31.13908557	      9.32583362	     -2.61023451	      0.00000000	     38.11079257	     -4.91072785	     -9.29776734	    -31.48284108	      8.58542088	    -14.48292424	      0.00000000	     -1.13691225	      2.76899021	      9.39857161
      1.69000000	     -5.41525631	     -0.56330957	    -13.98712461	      0.77697109	      0.70571319	     -0.08234228	     -9.08263104	     -0.45536731	      2.35546111	    -35.53570049	      6.31986572	     -4.38819558	      0.00000000	     37.54753786	     -3.76779305	     -9.10927932	    -33.74446150	      8.59230178	    -15.23420575	      0.00000000	     -1.12182597	      1.83348577	      9.49272298
      1.70000000	     -4.95961109	      0.24618859	    -13.95834904	      0.79390128	      0.70602734	     -0.08335085	     -7.70743132	     -1.54413068	      2.83714092	    -40.22057571	      3.41720615	     -6.04058211	      0.00000000	     36.77822931	     -2.50778723	     -9.15635189	    -35.59332790	      9.00405825	    -15.60624627	      0.00000000	     -1.11200750	      0.79781065	      9.53408103
      1.71000000	     -4.52662734	      1.13448148	    -13.88834578	      0.81061333	      0.70655683	     -0.08444446	     -6.06232980	     -2.70310562	      3.17791779	    -45.04718405	      0.85184082	     -7.63173396	      0.00000000	     35.82454669	     -1.15083538	     -9.38696601	    -36.98673976	      9.79756460	    -15.67259870	      0.00000000	     -1.09551561	     -0.30878841	      9.50385479
      1.72000000	     -4.13230053	      2.06099063	    -13.76978051	      0.82708507	      0.70729916	     -0.08561159	     -4.19704525	     -3.88429930	      3.42183253	    -49.87899316	     -1.19340288	     -9.24341325	      0.00000000	     34.70882367	      0.26183034	     -9.74055797	    -37.92328398	     10.90969938	    -15.47855619	      0.00000000	     -1.06967560	     -1.43535360	      9.38519853
      1.73000000	     -3.78636755	      2.98328796	    -13.60336482	      0.84330663	      0.70825262	     -0.08683698	     -2.15267606	     -5.04015207	      3.60203355	    -54.60783773	     -2.61313688	    -10.92252852	      0.00000000	     33.44757420	      1.68594882	    -10.16008443	    -38.42209557	     12.24499699	    -15.07138340	      0.00000000	     -1.03719160	     -2.53018204	      9.17748913
      1.74000000	     -3.49522478	      3.86287064	    -13.39506852	      0.85927482	      0.70940898	     -0.08810259	      0.04003046	     -6.12663814	      3.74209686	    -59.14656025	     -3.39010952	    -12.68090679	      0.00000000	     32.05562108	      3.07986084	    -10.59568236	    -38.51589685	     13.69266430	    -14.50265771	      0.00000000	     -1.00085928	     -3.54691441	      8.88798757
      1.75000000	     -3.26095018	      4.66733947	    -13.15307933	      0.87498861	      0.71075366	     -0.08938962	      2.35567493	     -7.10466229	      3.85630688	    -63.42148451	     -3.58092398	    -14.50512596	      0.00000000	     30.54681355	      4.40769869	    -11.00747379	    -38.24661352	     15.14360123	    -13.82721070	      0.00000000	     -0.96615059	     -4.44898493	      8.52677595
      1.76000000	     -3.08418986	      5.37464034	    -12.88880036	      0.89044995	      0.71226120	     -0.09067645	      4.77504005	     -7.94409689	      3.95547515	    -67.36960609	     -3.27964280	    -16.33106886	      0.00000000	     28.93787945	      5.64020471	    -11.37358501	    -37.66209105	     16.50938392	    -13.08054459	      0.00000000	     -0.93443162	     -5.21285601	      8.11006977
      1.77000000	     -2.96444256	      5.96912480	    -12.60893106	      0.90566235	      0.71390040	     -0.09194173	      7.27923642	     -8.61804006	      4.04184349	    -70.93423001	     -2.60203589	    -18.07962523	      0.00000000	     27.24816874	      6.75726701	    -11.67541222	    -36.81305997	     17.72001433	    -12.31134926	      0.00000000	     -0.90677934	     -5.82495488	      7.64659841
      1.78000000	     -2.89821757	      6.44381600	    -12.31882424	      0.92063138	      0.71563602	     -0.09316399	      9.84917492	     -9.10889354	      4.11323069	    -74.06915704	     -1.65953518	    -19.64637100	      0.00000000	     25.49660758	      7.74696942	    -11.90650599	    -35.75012443	     18.73345799	    -11.55537191	      0.00000000	     -0.88501554	     -6.28403013	      7.14441234
      1.79000000	     -2.88122615	      6.79908022	    -12.02070234	      0.93536358	      0.71742827	     -0.09432156	     12.46558681	     -9.40694482	      4.16431818	    -76.73929079	     -0.55088915	    -20.92381571	      0.00000000	     23.70373385	      8.60297792	    -12.07431002	    -34.52425402	     19.53703345	    -10.82696630	      0.00000000	     -0.87043590	     -6.59887154	      6.60705367
